# xmcd CD database file
#
# Track frame offsets:
#	150
#	10578
#	20602
#	34932
#	47844
#	61809
#	74174
#	83497
#	97888
#	111996
#	118083
#	126891
#	139411
#
# Disc length: 2060 seconds
#
# Revision: 0
# Processed by: cddbd v1.5.2PL0 Copyright (c) Steve Scherf et al.
# Submitted via: CDex 1.70beta2
#
DISCID=b3080a0d
DTITLE=Good Time Charlie - Mojo Energy
DYEAR=2008
DGENRE=Blues
TTITLE0=Mojo Energy
TTITLE1=You Cause Me Pain
TTITLE2=Dealin' With the Devil
TTITLE3=This Train
TTITLE4=Fools Paradise
TTITLE5=Brasero
TTITLE6=Bad Reputation
TTITLE7=You Know
TTITLE8=Cursed
TTITLE9=Las Vegas
TTITLE10=I Need You
TTITLE11=Time is Runnin' Out
TTITLE12=Give You Up
EXTD=YEAR: 2008
EXTT0=
EXTT1=
EXTT2=
EXTT3=
EXTT4=
EXTT5=
EXTT6=
EXTT7=
EXTT8=
EXTT9=
EXTT10=
EXTT11=
EXTT12=
PLAYORDER=
